<?xml version="1.0" standalone="no"?>
<!DOCTYPE svg PUBLIC "-//W3C//DTD SVG 20010904//EN"
 "http://www.w3.org/TR/2001/REC-SVG-20010904/DTD/svg10.dtd">
<svg version="1.0" xmlns="http://www.w3.org/2000/svg"
 width="1783.000000pt" height="1039.000000pt" viewBox="0 0 1783.000000 1039.000000"
 preserveAspectRatio="xMidYMid meet">

<g transform="translate(0.000000,1039.000000) scale(0.100000,-0.100000)"
fill="#000000" stroke="none">
<path d="M2695 10375 c-86 -24 -191 -84 -243 -139 -65 -68 -72 -104 -72 -357
0 -219 -4 -236 -59 -277 -22 -16 -31 -31 -31 -51 0 -30 77 -233 109 -285 12
-20 20 -59 24 -106 6 -88 33 -164 77 -220 l32 -40 -30 0 c-22 0 -45 -13 -84
-48 -65 -60 -80 -68 -143 -77 -60 -9 -85 -21 -85 -40 0 -26 -14 -17 -73 50
-32 36 -77 75 -99 86 -58 30 -190 55 -378 74 l-165 16 -29 -32 -29 -33 -16 25
c-36 54 -94 108 -153 140 -60 32 -69 34 -183 37 -135 4 -222 -11 -305 -53 -36
-18 -48 -21 -44 -10 4 8 37 31 75 51 134 71 218 194 239 352 23 174 79 268
250 420 101 89 149 117 186 108 12 -3 43 -30 69 -60 115 -135 290 -112 372 49
33 65 36 142 7 181 -44 60 -55 63 -256 75 -264 15 -391 10 -448 -18 -25 -12
-169 -122 -320 -244 -151 -122 -345 -275 -431 -340 -163 -124 -232 -191 -301
-292 -81 -119 -158 -319 -158 -409 0 -76 31 -119 140 -195 36 -25 139 -121
230 -214 180 -183 270 -250 429 -320 149 -66 345 -108 511 -110 64 0 136 -17
82 -18 -13 -1 -36 -8 -52 -16 -28 -15 -30 -19 -30 -74 0 -123 71 -330 163
-474 19 -30 76 -101 125 -158 168 -196 262 -348 315 -514 43 -134 48 -180 46
-416 -2 -178 1 -246 15 -329 17 -96 17 -107 2 -135 -8 -16 -19 -70 -25 -118
-7 -73 -13 -93 -34 -115 -13 -15 -36 -45 -50 -67 -13 -23 -96 -113 -183 -200
-132 -132 -344 -383 -344 -406 0 -11 544 -19 639 -9 220 23 330 74 556 254
320 255 734 455 1115 540 637 141 1316 39 1989 -299 111 -55 284 -152 381
-214 41 -26 -117 142 -222 235 l-98 88 32 32 c261 251 275 262 373 308 264
124 486 306 690 568 141 181 177 240 183 298 7 76 -13 128 -112 294 -109 181
-187 287 -262 355 -60 55 -172 126 -216 136 -48 12 -105 71 -124 128 -43 131
-101 213 -196 277 -53 35 -547 290 -563 290 -3 0 -5 -6 -5 -14 0 -8 -25 -55
-55 -106 -139 -237 -185 -448 -138 -642 l17 -70 -27 -20 c-36 -26 -34 -42 7
-70 37 -25 157 -168 203 -241 l30 -46 57 84 c31 46 89 120 127 165 l70 80 -32
40 c-25 31 -30 43 -21 52 9 9 15 9 25 -2 8 -8 63 -71 123 -140 130 -149 249
-268 413 -415 66 -59 121 -110 121 -113 0 -2 -22 -41 -49 -86 -98 -162 -239
-335 -395 -483 -222 -212 -323 -260 -596 -283 -69 -6 -144 -15 -168 -21 -34
-7 -49 -6 -75 8 l-32 16 30 9 c17 5 73 12 125 15 52 3 98 11 102 17 11 16 9
144 -3 212 -6 32 -24 83 -41 113 l-30 54 22 96 c19 81 71 254 95 312 5 12 0
17 -17 17 -19 0 -226 32 -375 57 -31 5 -31 5 -42 -45 -16 -73 -16 -73 38 -45
64 32 73 17 16 -24 -25 -18 -50 -41 -56 -52 -13 -25 -39 -159 -30 -159 3 0 49
23 101 50 68 35 96 46 102 37 5 -8 -40 -43 -135 -105 -78 -51 -149 -97 -158
-102 -13 -7 -6 23 27 127 25 75 43 137 42 139 -2 1 -23 -1 -48 -6 -25 -5 -46
-7 -47 -6 -2 1 22 43 53 92 31 49 58 94 61 100 2 7 -15 14 -44 17 -110 14
-420 57 -445 61 -31 6 -42 -8 -53 -66 l-7 -37 74 -21 c120 -34 119 -34 63 -56
-27 -10 -64 -31 -82 -47 -30 -26 -33 -35 -33 -83 0 -30 1 -54 3 -54 1 0 27 7
57 15 93 25 100 21 54 -27 -65 -68 -84 -99 -84 -132 0 -71 57 -106 176 -106
56 0 75 -3 72 -12 -8 -23 -139 -22 -214 2 -36 11 -91 20 -121 20 -51 0 -59 -3
-93 -37 -20 -21 -41 -47 -47 -57 -14 -26 -43 -14 -43 18 0 67 47 106 148 122
23 4 44 10 47 14 9 15 -51 79 -103 111 -48 29 -52 34 -38 48 14 13 21 13 65
-1 45 -14 52 -14 63 -1 10 12 2 34 -46 125 l-59 111 36 -7 c46 -9 58 12 55 86
-1 29 1 60 5 69 7 13 -11 18 -124 33 -136 17 -157 24 -198 60 -16 14 -13 7 9
-20 31 -38 33 -45 31 -110 -1 -53 8 -107 39 -229 47 -188 51 -264 19 -352 -12
-32 -25 -62 -29 -66 -4 -5 -84 -5 -178 -1 l-170 7 -16 82 c-9 45 -21 152 -26
236 -5 85 -16 197 -24 249 -9 52 -16 102 -16 111 0 14 142 211 185 258 11 11
19 7 47 -25 18 -21 46 -52 61 -69 25 -27 25 -25 -7 25 -79 124 -98 268 -57
424 12 44 21 95 21 113 0 29 5 36 34 48 19 8 49 35 69 62 32 45 383 562 402
592 7 12 -6 13 -83 7 -351 -26 -573 -207 -677 -551 -35 -116 -77 -197 -165
-320 -90 -125 -174 -294 -201 -404 -18 -71 -20 -105 -16 -220 4 -123 8 -148
45 -267 22 -71 61 -185 85 -251 40 -112 42 -122 25 -126 -11 -3 -22 2 -27 11
-16 30 -132 395 -154 482 -30 124 -30 325 1 433 45 156 104 260 231 400 84 94
109 143 122 239 28 201 131 355 343 508 41 30 76 57 76 60 0 4 -170 84 -377
179 -208 95 -382 177 -387 181 -12 12 21 325 45 418 10 42 39 118 63 167 24
50 46 107 50 127 10 55 -9 111 -49 147 l-35 30 15 63 c8 35 15 100 15 145 0
196 -98 343 -300 447 -146 76 -248 92 -365 61z m175 -2148 c0 -6 -9 -43 -20
-81 l-19 -68 32 6 c18 3 61 8 97 11 l65 6 -40 -24 c-115 -72 -155 -114 -155
-167 0 -21 13 -31 85 -68 62 -32 85 -49 85 -63 0 -24 -6 -24 -37 1 -43 34
-100 27 -166 -20 -62 -45 -127 -76 -127 -61 0 5 8 12 18 16 48 16 112 100 112
148 0 42 -41 115 -105 185 -32 35 -55 65 -53 68 3 2 35 -9 71 -26 37 -16 69
-30 72 -30 3 0 5 38 5 84 0 80 1 85 23 89 43 8 57 7 57 -6z m-1095 -297 c64
-146 147 -328 185 -405 83 -169 182 -305 254 -350 l50 -30 178 3 c175 4 178 3
178 -17 0 -12 -3 -21 -7 -21 -5 0 -48 -5 -98 -10 -162 -18 -205 -48 -205 -144
l0 -44 78 -7 c115 -11 125 -18 54 -38 -134 -37 -194 -150 -142 -265 28 -61 76
-81 200 -83 106 -1 91 -8 -60 -29 -61 -8 -100 -20 -137 -41 l-53 -30 21 -42
c12 -23 30 -52 41 -64 29 -31 114 -46 231 -41 86 4 98 3 95 -11 -3 -13 -32
-18 -166 -30 l-162 -14 6 -79 c4 -48 3 -78 -3 -78 -12 0 -91 165 -136 285
l-34 90 31 3 c61 6 61 5 -14 147 l-71 136 38 -16 c21 -9 44 -19 51 -22 7 -3
-9 55 -38 137 -27 79 -50 147 -50 152 0 4 26 -5 58 -21 77 -39 90 -32 73 42
-12 55 -20 69 -236 417 -60 96 -134 227 -166 290 -87 175 -170 391 -176 457
-4 41 -2 55 5 48 6 -5 63 -129 127 -275z m1058 -517 c8 -102 21 -146 59 -189
34 -38 69 -59 132 -79 l41 -12 -88 -42 c-114 -54 -137 -76 -137 -135 0 -25 5
-56 12 -70 11 -25 16 -28 71 -40 l28 -7 -30 -38 c-40 -50 -51 -81 -51 -146 0
-45 5 -60 34 -98 l34 -45 -35 -33 -35 -34 5 -102 6 -103 -27 0 c-15 0 -44 3
-65 7 l-38 6 24 26 c52 56 61 118 27 185 l-19 38 24 49 c53 103 18 247 -67
283 l-28 12 34 55 c19 29 37 66 41 80 8 31 -11 77 -56 136 l-32 42 30 35 c37
41 48 74 63 181 22 151 34 162 43 38z m357 -399 c0 -148 48 -387 129 -644 17
-52 27 -98 23 -101 -11 -10 -145 -29 -201 -29 -89 0 -91 11 -6 39 96 32 112
51 121 144 l7 67 -62 0 c-33 0 -61 3 -61 7 0 4 18 26 40 48 l40 41 -9 93 c-10
97 -26 135 -61 146 -17 5 -20 13 -16 33 3 15 10 63 16 107 14 107 19 125 30
125 6 0 10 -33 10 -76z m1680 -826 c-5 -72 -13 -85 -39 -69 -12 8 -11 16 4 53
9 23 21 53 26 66 5 12 10 22 11 22 2 0 1 -32 -2 -72z"/>
<path d="M4886 9870 l-37 -33 -59 13 c-34 7 -98 11 -152 8 -82 -3 -100 -8
-156 -38 -108 -57 -178 -158 -208 -298 -7 -37 -19 -127 -26 -200 -26 -287 44
-610 160 -729 58 -59 103 -77 207 -81 l90 -4 -35 -19 c-19 -10 -43 -18 -53
-19 -34 0 -124 -55 -146 -88 -47 -71 -68 -250 -36 -311 47 -91 264 -92 452 -2
95 46 159 88 298 197 56 44 112 86 125 95 l24 16 -54 18 c-69 22 -118 58 -135
99 -21 52 -35 186 -26 252 8 53 54 182 80 223 10 15 10 17 29 -124 16 -116 47
-182 116 -250 105 -103 351 -234 441 -235 29 0 28 1 -22 35 -85 57 -146 143
-187 267 -40 119 -48 228 -34 499 27 542 -41 655 -427 716 -186 29 -188 29
-229 -7z"/>
<path d="M5170 7065 c208 -99 245 -120 256 -142 10 -20 12 -18 35 31 13 30 19
52 13 49 -7 -2 -34 7 -61 21 -28 14 -112 39 -188 56 -77 18 -146 34 -154 36
-9 2 36 -21 99 -51z"/>
<path d="M6543 4488 c-6 -7 -54 -87 -108 -178 -256 -430 -306 -633 -259 -1047
20 -180 20 -489 0 -659 -72 -604 -324 -1130 -755 -1577 -233 -241 -457 -405
-878 -645 -32 -18 -69 -42 -83 -53 l-25 -20 55 6 c79 10 299 68 410 108 1011
368 1768 1349 1926 2497 22 156 25 548 6 695 -33 252 -111 536 -203 736 -61
132 -74 153 -86 137z"/>
<path d="M8520 4386 c0 -3 -126 -435 -280 -960 -154 -526 -280 -958 -280 -961
0 -3 126 -5 279 -5 l280 0 16 58 c9 31 56 190 103 352 l87 295 293 3 292 2
198 231 c108 127 201 238 205 245 7 12 -46 14 -330 13 l-338 0 -130 -158 c-71
-87 -131 -157 -133 -156 -2 2 25 97 139 488 l20 67 461 0 462 0 48 51 c70 75
278 398 278 432 0 4 -376 7 -835 7 -459 0 -835 -2 -835 -4z"/>
<path d="M10504 4345 c-51 -56 -146 -189 -236 -333 l-68 -107 275 -3 c211 -2
275 -5 275 -15 0 -7 -61 -219 -135 -471 -74 -253 -135 -461 -135 -463 0 -1
-80 -3 -178 -3 l-178 0 -35 -37 c-67 -71 -210 -275 -278 -395 l-33 -58 743 0
743 0 49 52 c78 83 277 394 277 433 0 3 -121 5 -270 5 -210 0 -270 3 -270 13
0 6 61 219 135 471 74 253 135 461 135 463 0 1 83 3 184 3 l183 0 50 53 c76
81 273 386 273 424 0 11 -140 13 -732 13 l-732 0 -42 -45z"/>
<path d="M12349 4353 c-67 -71 -210 -275 -278 -395 l-33 -58 277 0 277 0 -6
-25 c-8 -32 -394 -1351 -406 -1387 l-9 -28 283 0 283 0 210 718 210 717 186 3
186 2 46 52 c80 89 275 396 275 433 0 3 -330 5 -733 5 l-733 0 -35 -37z"/>
<path d="M895 4125 c-296 -947 -95 -1970 543 -2771 109 -137 325 -354 462
-464 364 -291 811 -504 1250 -594 119 -24 351 -57 358 -50 7 6 -161 300 -233
409 -186 279 -323 392 -656 536 -99 43 -233 108 -297 144 -687 392 -1169 1079
-1332 1895 -50 250 -55 318 -53 678 1 182 0 332 -3 332 -2 0 -19 -52 -39 -115z"/>
<path d="M7536 987 c-153 -523 -281 -958 -283 -964 -4 -10 56 -13 278 -13
l284 0 100 345 100 345 314 0 313 0 -7 -27 c-3 -16 -46 -166 -96 -334 -49
-168 -89 -311 -89 -318 0 -8 71 -11 277 -9 l277 3 243 830 c133 457 260 890
282 963 l39 132 -281 -2 -280 -3 -99 -335 c-54 -184 -103 -352 -109 -372 l-10
-38 -224 0 -224 0 -137 -175 c-75 -97 -138 -174 -141 -172 -3 4 297 1039 314
1084 4 10 -53 13 -278 13 l-284 0 -279 -953z"/>
<path d="M10300 1925 c-141 -31 -329 -155 -452 -298 -165 -192 -273 -421 -315
-665 -22 -131 -22 -382 0 -480 39 -177 142 -315 287 -385 148 -72 287 -91 627
-85 213 4 245 7 308 28 316 102 577 383 699 750 89 270 100 617 27 812 -60
158 -201 265 -411 313 -106 24 -673 32 -770 10z m498 -487 c31 -8 59 -25 87
-53 60 -60 79 -134 73 -291 -5 -133 -21 -193 -79 -290 -44 -75 -188 -219 -264
-264 l-59 -35 -137 0 c-136 0 -138 0 -180 30 -79 56 -140 173 -162 308 -14 86
8 184 64 297 62 124 200 261 296 296 48 17 296 19 361 2z"/>
<path d="M11913 1507 c-168 -597 -203 -763 -203 -967 1 -307 102 -442 375
-502 126 -28 687 -38 810 -15 287 54 463 268 633 772 28 83 115 368 193 634
77 267 143 491 146 498 4 11 -48 13 -275 13 -259 0 -281 -1 -286 -17 -3 -10
-73 -250 -156 -533 -82 -283 -157 -533 -166 -555 -46 -118 -162 -258 -255
-306 -61 -32 -237 -40 -305 -14 -126 48 -155 218 -85 495 27 106 231 859 247
913 5 16 -13 17 -273 17 l-278 0 -122 -433z"/>
<path d="M14322 1923 c-54 -19 -160 -116 -214 -195 -53 -78 -124 -229 -143
-303 -49 -191 14 -438 148 -582 102 -109 97 -107 484 -111 288 -3 333 -6 345
-19 18 -22 17 -175 -1 -197 -12 -14 -71 -16 -530 -16 l-517 0 -91 -137 c-87
-131 -203 -329 -203 -345 0 -5 346 -8 768 -8 l768 0 51 26 c117 58 236 228
289 414 24 85 26 102 21 224 -10 244 -90 424 -225 504 l-47 27 -327 5 -327 5
-30 29 c-38 37 -41 82 -8 146 l22 45 497 3 497 2 59 73 c108 132 282 391 282
419 0 4 -343 8 -762 7 -658 0 -769 -3 -806 -16z"/>
<path d="M16151 1908 c-25 -78 -551 -1880 -551 -1889 0 -5 294 -9 738 -9 l737
0 71 83 c121 141 185 229 230 320 l44 87 -561 0 c-445 0 -560 3 -556 13 2 6
17 56 33 110 l28 97 291 0 292 0 189 222 c104 122 197 232 207 245 l18 23
-338 0 -339 0 -128 -155 c-71 -86 -131 -154 -133 -152 -1 2 32 125 75 273 l79
269 460 3 461 2 55 60 c66 71 167 221 232 343 l47 87 -835 0 -835 0 -11 -32z"/>
</g>
</svg>
